Coordinates
version=1
nRows=24
nColumns=24
inDegrees=yes

Units are S.I. units (second, meters, Newtons, ...)
Angles are in degrees.

endheader
time	pelvis_tilt	pelvis_list	pelvis_rotation	pelvis_tx	pelvis_ty	pelvis_tz	hip_flexion_r	hip_adduction_r	hip_rotation_r	knee_angle_r	ankle_angle_r	subtalar_angle_r	mtp_angle_r	hip_flexion_l	hip_adduction_l	hip_rotation_l	knee_angle_l	ankle_angle_l	subtalar_angle_l	mtp_angle_l	lumbar_extension	lumbar_bending	lumbar_rotation
      4.41500000	    -13.04171661	      2.13720940	     -0.29229028	      0.19043524	     -0.00385169	     -0.03427989	     36.02113996	     -6.92514025	     -7.35332378	    -50.43570534	     -6.34573546	      9.04581424	     37.85325995	      5.78331418	      6.54418752	     -4.76913464	     -3.92582620	     -0.71524283	      6.37660570	      8.44504113	     11.11377484	     -4.79855545	     -5.59763863
      4.42000000	    -13.03916054	      2.00309845	     -0.08571033	      0.19572931	     -0.00425045	     -0.03486393	     36.26350359	     -6.79050584	     -7.58966910	    -49.40817507	     -6.20761177	      8.97165077	     37.53516634	      5.42822669	      6.44663625	     -4.57147032	     -3.89401160	     -0.52808877	      6.47226625	      8.52592986	     11.09739013	     -4.66023288	     -5.80640231
      4.42500000	    -12.93291117	      1.89565045	      0.13996336	      0.20100047	     -0.00457705	     -0.03543293	     36.37292414	     -6.70209008	     -7.87443430	    -48.36517554	     -6.00948231	      8.89628527	     36.89856555	      4.96046245	      6.37379942	     -4.39121246	     -3.85841052	     -0.34751223	      6.63058850	      8.63363216	     10.96154319	     -4.56361186	     -6.05088424
      4.43000000	    -12.95803496	      1.78052057	      0.30797571	      0.20629733	     -0.00504565	     -0.03595834	     36.61953233	     -6.56938095	     -8.10669856	    -47.26796983	     -5.90111589	      8.80053232	     36.43473189	      4.64061816	      6.28545636	     -4.26181934	     -3.82917326	     -0.18208176	      6.73094452	      8.72727319	     10.98072233	     -4.43395352	     -6.20223585
      4.43500000	    -12.88174332	      1.68097409	      0.48069269	      0.21153177	     -0.00543384	     -0.03644869	     36.73443259	     -6.44501628	     -8.30777253	    -46.14617044	     -5.71121940	      8.81183244	     35.59948317	      4.21970111	      6.20378123	     -4.14243210	     -3.81150104	     -0.00686985	      6.91729088	      8.87528114	     10.87572311	     -4.32447264	     -6.37801782
      4.44000000	    -12.96063579	      1.59939262	      0.63460635	      0.21673374	     -0.00602635	     -0.03692764	     37.01802925	     -6.33001844	     -8.51784976	    -44.97361356	     -5.63505911	      8.57481509	     35.30280801	      3.99194149	      6.14312297	     -4.00079622	     -3.83812275	      0.16925366	      6.97695255	      8.96113674	     10.94196747	     -4.22220218	     -6.49103694
      4.44500000	    -12.86485732	      1.49072099	      0.84075387	      0.22194287	     -0.00639956	     -0.03741468	     37.06166115	     -6.22420678	     -8.80955282	    -43.76853092	     -5.48744640	      8.47499317	     34.45280988	      3.56439994	      6.04411793	     -3.88963140	     -3.83892082	      0.35059007	      7.22641755	      9.11575690	     10.80477329	     -4.11714723	     -6.70251965
      4.45000000	    -12.95823831	      1.41772879	      0.99065475	      0.22709656	     -0.00703581	     -0.03782811	     37.32630686	     -6.10827714	     -9.01716936	    -42.52313193	     -5.44579494	      8.18219582	     34.13672985	      3.36780571	      5.98316757	     -3.74624477	     -3.88586893	      0.52800308	      7.28127290	      9.19924933	     10.87406130	     -4.03070361	     -6.80175721
      4.45500000	    -12.87322955	      1.32964284	      1.21358957	      0.23225579	     -0.00745766	     -0.03831162	     37.34678734	     -6.03574076	     -9.35924714	    -41.25323306	     -5.31915122	      7.97721474	     33.36715295	      2.98180792	      5.89907953	     -3.62072065	     -3.93905355	      0.71975186	      7.54451349	      9.33990182	     10.73997192	     -3.94600045	     -7.01692784
      4.46000000	    -12.97145178	      1.24707957	      1.33528914	      0.23740742	     -0.00809747	     -0.03869842	     37.57418158	     -5.89244749	     -9.54260261	    -39.92580354	     -5.32697607	      7.74862162	     33.00063187	      2.80023809	      5.82037708	     -3.49935167	     -4.00084867	      0.88785364	      7.60013460	      9.41744581	     10.81346457	     -3.83728313	     -7.09204836
      4.46500000	    -12.89025641	      1.16322452	      1.54877302	      0.24255607	     -0.00854220	     -0.03910140	     37.56000466	     -5.80501665	     -9.87307836	    -38.59217630	     -5.20912237	      7.54914865	     32.15149820	      2.43219066	      5.72638764	     -3.37880345	     -4.07704405	      1.08323372	      7.89442443	      9.55759342	     10.67936747	     -3.76074938	     -7.29022088
      4.47000000	    -12.90172257	      1.07268563	      1.68499742	      0.24767665	     -0.00907510	     -0.03944394	     37.64347719	     -5.65256768	    -10.06408139	    -37.21826742	     -5.16730829	      7.48797208	     31.24924269	      2.17638672	      5.62313763	     -3.30134644	     -4.16914324	      1.26122981	      8.09524913	      9.68221461	     10.64510174	     -3.65059633	     -7.41494376
      4.47500000	    -13.00620030	      1.01128167	      1.82522489	      0.25283288	     -0.00975410	     -0.03977726	     37.81631495	     -5.53371859	    -10.27691230	    -35.80768909	     -5.18273988	      7.28045089	     30.87969813	      2.01953846	      5.55470429	     -3.15537227	     -4.26248656	      1.41460608	      8.18929876	      9.76537944	     10.71929275	     -3.57343820	     -7.48264509
      4.48000000	    -13.08534117	      0.92703991	      1.95602625	      0.25797212	     -0.01041217	     -0.04009814	     37.93250519	     -5.38040914	    -10.46004250	    -34.34954083	     -5.18808310	      7.17210118	     30.52794068	      1.85973431	      5.45717845	     -3.03962405	     -4.40224102	      1.60003269	      8.30041350	      9.86549384	     10.75979715	     -3.46868277	     -7.58025775
      4.48500000	    -12.99912347	      0.83419085	      2.10980998	      0.26311867	     -0.01084111	     -0.04036355	     37.83314889	     -5.21413839	    -10.64345506	    -32.87190677	     -5.14229688	      7.17634977	     29.70541261	      1.50985460	      5.32798150	     -3.02341956	     -4.51300077	      1.79052269	      8.70280387	     10.03035436	     10.61143922	     -3.36699535	     -7.72997911
      4.49000000	    -13.13828283	      0.77213810	      2.21705799	      0.26827697	     -0.01158545	     -0.04063940	     37.99192059	     -5.05739948	    -10.74551424	    -31.37898569	     -5.18641692	      7.14881434	     29.41793097	      1.41537255	      5.25009087	     -2.89916525	     -4.65194270	      1.94931941	      8.78673417	     10.12566397	     10.71606174	     -3.27647876	     -7.74691279
      4.49500000	    -13.13857712	      0.68050577	      2.37232797	      0.27339941	     -0.01211903	     -0.04083432	     37.95903646	     -4.87423484	    -10.85886890	    -29.84926584	     -5.21238340	      7.11803839	     28.87234295	      1.18877570	      5.11251821	     -2.82694671	     -4.81664666	      2.14310033	      9.15898178	     10.30227687	     10.65323597	     -3.18547795	     -7.87842858
      4.50000000	    -13.25456842	      0.60205940	      2.44240316	      0.27864512	     -0.01280757	     -0.04103293	     38.05513444	     -4.67188280	    -10.92122995	    -28.31409770	     -5.29650789	      7.20753213	     28.56266250	      1.06223263	      5.00302902	     -2.76971088	     -4.94602314	      2.27834771	      9.33461192	     10.41009567	     10.74118187	     -3.07367772	     -7.88554270
      4.50500000	    -13.28073849	      0.51443393	      2.57107146	      0.28382213	     -0.01339586	     -0.04122143	     38.02601717	     -4.46603008	    -10.91244008	    -26.75874744	     -5.33586820	      7.24146799	     28.12818821	      0.86836451	      4.86758110	     -2.75702447	     -5.12152653	      2.47187006	      9.73156933	     10.60285884	     10.70952397	     -2.97047582	     -7.97636689
      4.51000000	    -13.41469646	      0.45039291	      2.63255867	      0.28914881	     -0.01413527	     -0.04144758	     38.11779578	     -4.26575477	    -10.86606711	    -25.21499330	     -5.40558781	      7.39414173	     27.89902341	      0.75508166	      4.77569484	     -2.72498771	     -5.24706058	      2.59092959	      9.90359973	     10.70683909	     10.82211916	     -2.86096159	     -7.97827763
      4.51500000	    -13.43246688	      0.35827577	      2.74500749	      0.29437228	     -0.01469243	     -0.04154981	     38.05601375	     -4.02963818	    -10.75847175	    -23.64342727	     -5.51113054	      7.38398637	     27.47704801	      0.55675677	      4.61877742	     -2.77611107	     -5.43197549	      2.77086118	     10.43515955	     10.94172568	     10.77898793	     -2.75851742	     -8.05671725
      4.52000000	    -13.52751516	      0.27828280	      2.82361524	      0.29971099	     -0.01536859	     -0.04170886	     38.07762250	     -3.80095878	    -10.59612610	    -22.09004330	     -5.62095238	      7.44281828	     27.15568103	      0.41966376	      4.49048611	     -2.80301872	     -5.58770998	      2.90308025	     10.79241240	     11.12338597	     10.84075137	     -2.64494419	     -8.08315336
      4.52500000	    -13.62260084	      0.20129133	      2.90709686	      0.30509109	     -0.01604647	     -0.04186917	     38.08926382	     -3.57530343	    -10.37426712	    -20.54189714	     -5.75176010	      7.45398109	     26.85629607	      0.28205731	      4.36335732	     -2.82735476	     -5.74681869	      3.02081567	     11.15864633	     11.30190621	     10.90218209	     -2.53686262	     -8.11769580
      4.53000000	    -13.75530132	      0.11467600	      2.99004794	      0.31057225	     -0.01676176	     -0.04208411	     38.13088408	     -3.35289049	    -10.14533674	    -19.00460376	     -5.91929270	      7.46309510	     26.60639694	      0.16871148	      4.23379936	     -2.81109397	     -5.88367429	      3.10543479	     11.43702326	     11.43672675	     11.02062079	     -2.41173762	     -8.14711743
